<?xml version="1.0" encoding="UTF-8" standalone="no"?><svg xmlns="http://www.w3.org/2000/svg" xmlns:xlink="http://www.w3.org/1999/xlink" contentScriptType="application/ecmascript" contentStyleType="text/css" height="476px" preserveAspectRatio="none" style="width:649px;height:476px;" version="1.1" viewBox="0 0 649 476" width="649px" zoomAndPan="magnify"><defs><filter height="300%" id="fyv3k3dqgyf7j" width="300%" x="-1" y="-1"><feGaussianBlur result="blurOut" stdDeviation="2.0"/><feColorMatrix in="blurOut" result="blurOut2" type="matrix" values="0 0 0 0 0 0 0 0 0 0 0 0 0 0 0 0 0 0 .4 0"/><feOffset dx="4.0" dy="4.0" in="blurOut2" result="blurOut3"/><feBlend in="SourceGraphic" in2="blurOut3" mode="normal"/></filter></defs><g><line style="stroke: #A80036; stroke-width: 1.0; stroke-dasharray: 5.0,5.0;" x1="57" x2="57" y1="65.2969" y2="403.625"/><line style="stroke: #A80036; stroke-width: 1.0; stroke-dasharray: 5.0,5.0;" x1="180" x2="180" y1="65.2969" y2="403.625"/><line style="stroke: #A80036; stroke-width: 1.0; stroke-dasharray: 5.0,5.0;" x1="267" x2="267" y1="65.2969" y2="403.625"/><line style="stroke: #A80036; stroke-width: 1.0; stroke-dasharray: 5.0,5.0;" x1="369.5" x2="369.5" y1="65.2969" y2="403.625"/><line style="stroke: #A80036; stroke-width: 1.0; stroke-dasharray: 5.0,5.0;" x1="425.5" x2="425.5" y1="65.2969" y2="403.625"/><line style="stroke: #A80036; stroke-width: 1.0; stroke-dasharray: 5.0,5.0;" x1="500.5" x2="500.5" y1="65.2969" y2="403.625"/><line style="stroke: #A80036; stroke-width: 1.0; stroke-dasharray: 5.0,5.0;" x1="602.5" x2="602.5" y1="65.2969" y2="403.625"/><text fill="#000000" font-family="sans-serif" font-size="14" lengthAdjust="spacingAndGlyphs" textLength="93" x="8" y="61.9951">Event source</text><ellipse cx="57.5" cy="33" fill="#FEFECE" filter="url(#fyv3k3dqgyf7j)" rx="12" ry="12" style="stroke: #A80036; stroke-width: 2.0;"/><line style="stroke: #A80036; stroke-width: 2.0;" x1="45.5" x2="69.5" y1="47" y2="47"/><text fill="#000000" font-family="sans-serif" font-size="14" lengthAdjust="spacingAndGlyphs" textLength="93" x="8" y="415.6201">Event source</text><ellipse cx="57.5" cy="434.9219" fill="#FEFECE" filter="url(#fyv3k3dqgyf7j)" rx="12" ry="12" style="stroke: #A80036; stroke-width: 2.0;"/><line style="stroke: #A80036; stroke-width: 2.0;" x1="45.5" x2="69.5" y1="448.9219" y2="448.9219"/><rect fill="#FEFECE" filter="url(#fyv3k3dqgyf7j)" height="30.2969" style="stroke: #A80036; stroke-width: 1.5;" width="83" x="137" y="30"/><text fill="#000000" font-family="sans-serif" font-size="14" lengthAdjust="spacingAndGlyphs" textLength="69" x="144" y="49.9951">Rulechain</text><rect fill="#FEFECE" filter="url(#fyv3k3dqgyf7j)" height="30.2969" style="stroke: #A80036; stroke-width: 1.5;" width="83" x="137" y="402.625"/><text fill="#000000" font-family="sans-serif" font-size="14" lengthAdjust="spacingAndGlyphs" textLength="69" x="144" y="422.6201">Rulechain</text><rect fill="#FEFECE" filter="url(#fyv3k3dqgyf7j)" height="30.2969" style="stroke: #A80036; stroke-width: 1.5;" width="59" x="236" y="30"/><text fill="#000000" font-family="sans-serif" font-size="14" lengthAdjust="spacingAndGlyphs" textLength="45" x="243" y="49.9951">Enrich</text><rect fill="#FEFECE" filter="url(#fyv3k3dqgyf7j)" height="30.2969" style="stroke: #A80036; stroke-width: 1.5;" width="59" x="236" y="402.625"/><text fill="#000000" font-family="sans-serif" font-size="14" lengthAdjust="spacingAndGlyphs" textLength="45" x="243" y="422.6201">Enrich</text><text fill="#000000" font-family="sans-serif" font-size="14" lengthAdjust="spacingAndGlyphs" textLength="21" x="356" y="61.9951">DB</text><path d="M351.5,13 C351.5,3 369.5,3 369.5,3 C369.5,3 387.5,3 387.5,13 L387.5,39 C387.5,49 369.5,49 369.5,49 C369.5,49 351.5,49 351.5,39 L351.5,13 " fill="#FEFECE" filter="url(#fyv3k3dqgyf7j)" style="stroke: #000000; stroke-width: 1.5;"/><path d="M351.5,13 C351.5,23 369.5,23 369.5,23 C369.5,23 387.5,23 387.5,13 " fill="none" style="stroke: #000000; stroke-width: 1.5;"/><text fill="#000000" font-family="sans-serif" font-size="14" lengthAdjust="spacingAndGlyphs" textLength="21" x="356" y="415.6201">DB</text><path d="M351.5,428.9219 C351.5,418.9219 369.5,418.9219 369.5,418.9219 C369.5,418.9219 387.5,418.9219 387.5,428.9219 L387.5,454.9219 C387.5,464.9219 369.5,464.9219 369.5,464.9219 C369.5,464.9219 351.5,464.9219 351.5,454.9219 L351.5,428.9219 " fill="#FEFECE" filter="url(#fyv3k3dqgyf7j)" style="stroke: #000000; stroke-width: 1.5;"/><path d="M351.5,428.9219 C351.5,438.9219 369.5,438.9219 369.5,438.9219 C369.5,438.9219 387.5,438.9219 387.5,428.9219 " fill="none" style="stroke: #000000; stroke-width: 1.5;"/><rect fill="#FEFECE" filter="url(#fyv3k3dqgyf7j)" height="30.2969" style="stroke: #A80036; stroke-width: 1.5;" width="52" x="397.5" y="30"/><text fill="#000000" font-family="sans-serif" font-size="14" lengthAdjust="spacingAndGlyphs" textLength="38" x="404.5" y="49.9951">Filter</text><rect fill="#FEFECE" filter="url(#fyv3k3dqgyf7j)" height="30.2969" style="stroke: #A80036; stroke-width: 1.5;" width="52" x="397.5" y="402.625"/><text fill="#000000" font-family="sans-serif" font-size="14" lengthAdjust="spacingAndGlyphs" textLength="38" x="404.5" y="422.6201">Filter</text><rect fill="#FEFECE" filter="url(#fyv3k3dqgyf7j)" height="30.2969" style="stroke: #A80036; stroke-width: 1.5;" width="71" x="463.5" y="30"/><text fill="#000000" font-family="sans-serif" font-size="14" lengthAdjust="spacingAndGlyphs" textLength="57" x="470.5" y="49.9951">Forward</text><rect fill="#FEFECE" filter="url(#fyv3k3dqgyf7j)" height="30.2969" style="stroke: #A80036; stroke-width: 1.5;" width="71" x="463.5" y="402.625"/><text fill="#000000" font-family="sans-serif" font-size="14" lengthAdjust="spacingAndGlyphs" textLength="57" x="470.5" y="422.6201">Forward</text><text fill="#000000" font-family="sans-serif" font-size="14" lengthAdjust="spacingAndGlyphs" textLength="75" x="562.5" y="61.9951">Event sink</text><ellipse cx="603" cy="33" fill="#FEFECE" filter="url(#fyv3k3dqgyf7j)" rx="12" ry="12" style="stroke: #A80036; stroke-width: 2.0;"/><line style="stroke: #A80036; stroke-width: 2.0;" x1="591" x2="615" y1="47" y2="47"/><text fill="#000000" font-family="sans-serif" font-size="14" lengthAdjust="spacingAndGlyphs" textLength="75" x="562.5" y="415.6201">Event sink</text><ellipse cx="603" cy="434.9219" fill="#FEFECE" filter="url(#fyv3k3dqgyf7j)" rx="12" ry="12" style="stroke: #A80036; stroke-width: 2.0;"/><line style="stroke: #A80036; stroke-width: 2.0;" x1="591" x2="615" y1="448.9219" y2="448.9219"/><polygon fill="#A80036" points="168.5,92.4297,178.5,96.4297,168.5,100.4297,172.5,96.4297" style="stroke: #A80036; stroke-width: 1.0;"/><line style="stroke: #A80036; stroke-width: 1.0;" x1="57.5" x2="174.5" y1="96.4297" y2="96.4297"/><text fill="#000000" font-family="sans-serif" font-size="13" lengthAdjust="spacingAndGlyphs" textLength="99" x="64.5" y="91.3638">Incoming event</text><line style="stroke: #A80036; stroke-width: 1.0;" x1="180.5" x2="222.5" y1="140.6953" y2="140.6953"/><line style="stroke: #A80036; stroke-width: 1.0;" x1="222.5" x2="222.5" y1="140.6953" y2="153.6953"/><line style="stroke: #A80036; stroke-width: 1.0;" x1="181.5" x2="222.5" y1="153.6953" y2="153.6953"/><polygon fill="#A80036" points="191.5,149.6953,181.5,153.6953,191.5,157.6953,187.5,153.6953" style="stroke: #A80036; stroke-width: 1.0;"/><text fill="#000000" font-family="sans-serif" font-size="13" lengthAdjust="spacingAndGlyphs" textLength="73" x="187.5" y="120.4966">Create root</text><text fill="#000000" font-family="sans-serif" font-size="13" lengthAdjust="spacingAndGlyphs" textLength="49" x="187.5" y="135.6294">context</text><polygon fill="#A80036" points="255.5,178.8281,265.5,182.8281,255.5,186.8281,259.5,182.8281" style="stroke: #A80036; stroke-width: 1.0;"/><line style="stroke: #A80036; stroke-width: 1.0;" x1="180.5" x2="261.5" y1="182.8281" y2="182.8281"/><text fill="#000000" font-family="sans-serif" font-size="13" lengthAdjust="spacingAndGlyphs" textLength="50" x="187.5" y="177.7622">root ctx</text><polygon fill="#A80036" points="357.5,223.0938,367.5,227.0938,357.5,231.0938,361.5,227.0938" style="stroke: #A80036; stroke-width: 1.0;"/><line style="stroke: #A80036; stroke-width: 1.0;" x1="267.5" x2="363.5" y1="227.0938" y2="227.0938"/><text fill="#000000" font-family="sans-serif" font-size="13" lengthAdjust="spacingAndGlyphs" textLength="78" x="274.5" y="206.895">root ctx and</text><text fill="#000000" font-family="sans-serif" font-size="13" lengthAdjust="spacingAndGlyphs" textLength="54" x="274.5" y="222.0278">deadline</text><polygon fill="#A80036" points="278.5,237.0938,268.5,241.0938,278.5,245.0938,274.5,241.0938" style="stroke: #A80036; stroke-width: 1.0;"/><line style="stroke: #A80036; stroke-width: 1.0;" x1="272.5" x2="368.5" y1="241.0938" y2="241.0938"/><polygon fill="#A80036" points="191.5,251.0938,181.5,255.0938,191.5,259.0938,187.5,255.0938" style="stroke: #A80036; stroke-width: 1.0;"/><line style="stroke: #A80036; stroke-width: 1.0;" x1="185.5" x2="266.5" y1="255.0938" y2="255.0938"/><polygon fill="#A80036" points="413.5,280.2266,423.5,284.2266,413.5,288.2266,417.5,284.2266" style="stroke: #A80036; stroke-width: 1.0;"/><line style="stroke: #A80036; stroke-width: 1.0;" x1="180.5" x2="419.5" y1="284.2266" y2="284.2266"/><text fill="#000000" font-family="sans-serif" font-size="13" lengthAdjust="spacingAndGlyphs" textLength="50" x="187.5" y="279.1606">root ctx</text><polygon fill="#A80036" points="191.5,294.2266,181.5,298.2266,191.5,302.2266,187.5,298.2266" style="stroke: #A80036; stroke-width: 1.0;"/><line style="stroke: #A80036; stroke-width: 1.0;" x1="185.5" x2="424.5" y1="298.2266" y2="298.2266"/><polygon fill="#A80036" points="489,323.3594,499,327.3594,489,331.3594,493,327.3594" style="stroke: #A80036; stroke-width: 1.0;"/><line style="stroke: #A80036; stroke-width: 1.0;" x1="180.5" x2="495" y1="327.3594" y2="327.3594"/><text fill="#000000" font-family="sans-serif" font-size="13" lengthAdjust="spacingAndGlyphs" textLength="50" x="187.5" y="322.2935">root ctx</text><polygon fill="#A80036" points="591,367.625,601,371.625,591,375.625,595,371.625" style="stroke: #A80036; stroke-width: 1.0;"/><line style="stroke: #A80036; stroke-width: 1.0;" x1="501" x2="597" y1="371.625" y2="371.625"/><text fill="#000000" font-family="sans-serif" font-size="13" lengthAdjust="spacingAndGlyphs" textLength="78" x="508" y="351.4263">root ctx and</text><text fill="#000000" font-family="sans-serif" font-size="13" lengthAdjust="spacingAndGlyphs" textLength="54" x="508" y="366.5591">deadline</text><polygon fill="#A80036" points="191.5,381.625,181.5,385.625,191.5,389.625,187.5,385.625" style="stroke: #A80036; stroke-width: 1.0;"/><line style="stroke: #A80036; stroke-width: 1.0;" x1="185.5" x2="500" y1="385.625" y2="385.625"/><!--MD5=[aabf35d8b6e71e40f16bb24429ba1004]
@startuml
entity "Event source" as event
participant Rulechain
participant Enrich
database DB
participant Filter as filter
participant Forward as forward
entity "Event sink" as sink

event -> Rulechain : Incoming event
Rulechain -> Rulechain : Create root\ncontext
Rulechain -> Enrich : root ctx
Enrich -> DB : root ctx and\ndeadline
DB -> Enrich
Enrich -> Rulechain
Rulechain -> filter : root ctx
filter -> Rulechain
Rulechain -> forward : root ctx
forward -> sink : root ctx and\ndeadline
forward -> Rulechain
@enduml

PlantUML version 1.2020.10(Sun May 17 09:48:49 UTC 2020)
(GPL source distribution)
Java Runtime: Java(TM) SE Runtime Environment
JVM: Java HotSpot(TM) 64-Bit Server VM
Operating System: Linux
Default Encoding: UTF-8
Language: en
Country: US
--></g></svg>